<?xml version="1.0" encoding="UTF-8" standalone="no"?><!DOCTYPE svg PUBLIC "-//W3C//DTD SVG 1.1//EN" "http://www.w3.org/Graphics/SVG/1.1/DTD/svg11.dtd"><svg width="100%" height="100%" viewBox="0 0 13307 14783" version="1.1" xmlns="http://www.w3.org/2000/svg" xmlns:xlink="http://www.w3.org/1999/xlink" xml:space="preserve" xmlns:serif="http://www.serif.com/" style="fill-rule:evenodd;clip-rule:evenodd;stroke-linejoin:round;stroke-miterlimit:2;"><path d="M12227,3232.77l-4767.84,-2752.71c-502.163,-289.925 -1120.85,-289.925 -1623.02,0l-4767.84,2752.71c-502.163,289.925 -811.513,825.725 -811.513,1405.57l0,5505.43c0,579.846 309.35,1115.65 811.513,1405.58l4767.84,2752.71c502.163,289.925 1120.85,289.925 1623.02,0l4767.84,-2752.71c502.162,-289.925 811.508,-825.729 811.508,-1405.58l0,-5505.43c0,-579.846 -309.346,-1115.65 -811.508,-1405.57" style="fill:#ec6529;fill-rule:nonzero;"/><path d="M9614.48,8214.34c4.225,-49.841 44.954,-88.537 94.979,-88.537l3156.77,46.3l0,-459.808l-3156.77,46.3c-50.025,0 -90.754,-38.692 -94.979,-88.534c-7.934,-93.866 -19.921,-186.583 -35.938,-277.908c-8.612,-49.175 20.684,-96.796 68.896,-109.721l3218.79,-812.712l0,-479.688l-3313.65,940.196c-48.259,12.929 -97.538,-13.833 -114.58,-60.804c-32,-88.171 -67.808,-174.488 -107.279,-258.784c-21.191,-45.258 -5.25,-99.016 38.046,-124.016l3496.31,-1951.65c-6.438,-173.617 -40.567,-342.592 -99.188,-501.438l-3579.75,2137.33c-43.254,24.966 -97.733,11.937 -126.358,-28.98c-53.638,-76.637 -110.588,-150.775 -170.692,-222.183c-32.167,-38.254 -30.675,-94.292 4.667,-129.654l2857.34,-2775.65l-429.416,-247.925l-2685.85,2765.65c-35.342,35.341 -91.396,36.837 -129.634,4.666c-71.412,-60.083 -145.529,-117.033 -222.171,-170.65c-40.904,-28.637 -53.929,-83.125 -28.958,-126.362l1883.83,-3156.18l-408.658,-235.942l-1790.94,3209.47c-25,43.3 -78.741,59.254 -124.021,38.05c-84.291,-39.463 -170.608,-75.267 -258.766,-107.258c-46.967,-17.046 -73.721,-66.321 -60.788,-114.588l1051.73,-3708.56l-429.429,-247.934l-974.533,3861.62c-12.921,48.225 -60.546,77.529 -109.704,68.904c-91.35,-16.012 -184.079,-28.008 -277.963,-35.946c-49.846,-4.22 -88.537,-44.954 -88.537,-94.979l65.212,-4476.39c-163.987,-26.292 -331.096,-27.275 -495.316,-2.934l65.279,4479.34c0,50.004 -38.692,90.738 -88.538,94.958c-93.866,7.938 -186.583,19.934 -277.904,35.946c-49.175,8.625 -96.796,-20.679 -109.708,-68.904l-976.959,-3871.21l-429.691,248.079l1054.41,3718c12.938,48.267 -13.812,97.542 -60.787,114.588c-88.159,31.991 -174.484,67.795 -258.759,107.258c-45.279,21.204 -99.029,5.25 -124.029,-38.05l-1795.58,-3217.78l-408.888,236.07l1888.71,3164.36c24.962,43.237 11.937,97.725 -28.979,126.362c-76.621,53.617 -150.738,110.567 -222.146,170.65c-38.25,32.171 -94.292,30.675 -129.634,-4.666l-2692.7,-2772.69l-429.675,248.075l2864.43,2782.55c35.345,35.362 36.85,91.4 4.658,129.654c-60.079,71.408 -117.033,145.546 -170.671,222.183c-28.633,40.917 -83.112,53.946 -126.358,28.98l-3595.36,-2146.64c-59.554,158.379 -94.658,327.004 -102.191,500.367l3514.9,1962.03c43.3,25 59.254,78.741 38.046,124.016c-39.459,84.296 -75.267,170.613 -107.254,258.784c-17.046,46.971 -66.321,73.733 -114.588,60.804l-3332.7,-945.6l0,480.279l3237.84,817.525c48.204,12.925 77.508,60.546 68.887,109.721c-16.016,91.325 -28,184.042 -35.95,277.908c-4.216,49.842 -44.941,88.534 -94.958,88.534l-3175.82,-46.584l0,460.375l3175.82,-46.583c50.017,0 90.742,38.696 94.958,88.537c7.95,93.846 19.934,186.584 35.95,277.905c8.621,49.154 -20.683,96.775 -68.887,109.7l-3237.84,817.533l0,480.304l3332.7,-945.596c48.267,-12.941 97.542,13.817 114.588,60.788c31.987,88.175 67.795,174.487 107.254,258.783c21.208,45.279 5.254,99.017 -38.046,124.017l-3134.05,1749.44c105.412,124.988 230.383,234.775 372.004,324.475l2944.7,-1758.16c43.246,-24.963 97.725,-11.938 126.358,28.979c53.638,76.638 110.592,150.775 170.671,222.208c32.192,38.23 30.687,94.271 -4.658,129.613l-2097.1,2037.16l401.85,232.009l1953.19,-2011.22c35.342,-35.342 91.384,-36.833 129.634,-4.663c71.408,60.08 145.525,117.03 222.146,170.646c40.916,28.638 53.941,83.125 28.979,126.367l-1361.17,2280.5l382.913,221.075l1294.02,-2318.95c25,-43.3 78.75,-59.238 124.029,-38.05c84.275,39.479 170.6,75.287 258.759,107.275c46.975,17.046 73.725,66.321 60.787,114.587l-764.796,2696.79l401.85,232.008l715.184,-2833.92c12.912,-48.225 60.533,-77.525 109.708,-68.904c91.321,16.017 184.038,28.013 277.904,35.946c49.846,4.221 88.538,44.958 88.538,94.958l-47.996,3293.35c152.883,20.984 308.075,20.105 460.762,-2.691l-47.941,-3290.64c0,-50.021 38.691,-90.733 88.537,-94.979c93.884,-7.933 186.613,-19.908 277.963,-35.946c49.158,-8.621 96.783,20.679 109.704,68.904l712.754,2824.33l401.596,-231.858l-762.117,-2687.34c-12.933,-48.266 13.821,-97.541 60.788,-114.587c88.158,-31.988 174.475,-67.796 258.766,-107.275c45.28,-21.188 99.021,-5.25 124.021,38.05l1289.38,2310.64l382.68,-220.938l-1356.29,-2272.33c-24.971,-43.242 -11.946,-97.729 28.958,-126.367c76.642,-53.616 150.759,-110.566 222.171,-170.646c38.238,-32.17 94.292,-30.679 129.634,4.663l1946.35,2004.17l401.588,-231.854l-2090,-2030.27c-35.342,-35.342 -36.834,-91.383 -4.667,-129.613c60.104,-71.433 117.054,-145.57 170.692,-222.208c28.625,-40.917 83.104,-53.942 126.358,-28.979l2934.88,1752.3c140.542,-90.342 264.409,-200.617 368.804,-325.875l-3121.06,-1742.18c-43.296,-25 -59.237,-78.738 -38.046,-124.017c39.471,-84.296 75.279,-170.608 107.279,-258.783c17.042,-46.971 66.321,-73.729 114.58,-60.788l3313.65,940.192l0,-479.708l-3218.79,-812.725c-48.212,-12.925 -77.508,-60.546 -68.896,-109.7c16.017,-91.321 28.004,-184.059 35.938,-277.905" style="fill:#ff0018;fill-rule:nonzero;"/><g><path d="M4918.32,4018.5l-1568.22,2607.13l1136.15,452.922l432.067,-3060.05Z" style="fill:#790b0b;"/><path d="M4486.1,7078.18l3303.09,-1790.81l-306.655,3586.87l-2996.43,-1796.07Z" style="fill:#f20d0d;"/><path d="M8059.35,9373.22l1736.14,-2593.91l-2313.2,2094.8l577.056,499.114Z" style="fill:#950d0d;"/><path d="M7806.36,5276.82l-3319.43,1800.21l2998.58,1790.83l320.855,-3591.04Z" style="fill:#ff0018;"/><path d="M7806.81,5277.19l-2888.49,-1258.68l-432.212,3059.91l3320.7,-1801.23Z" style="fill:#b51414;"/><path d="M4486.13,7078.07l-1136.03,-452.441l1704.73,3025.78l-568.697,-2573.34Z" style="fill:#521010;"/><path d="M7482.51,8874.13l-2427.68,777.287l3004.53,-278.2l-576.846,-499.087Z" style="fill:#540404;"/><path d="M7806.3,5276.34l1989.27,1502.9l-2313.18,2094.89l323.907,-3597.79Z" style="fill:#bb3f3f;"/><path d="M8088.66,3912.89l-282.531,1364.92l-2887.81,-1259.31l3170.34,-105.612Z" style="fill:#fc7474;"/><path d="M8088.66,3912.89l1706.9,2866.38l-1989.34,-1502.06l282.443,-1364.32Z" style="fill:#ff9f9f;"/><path d="M5054.83,9651.41l2427.68,-777.262l-2996.34,-1796.01l568.663,2573.27Z" style="fill:#8d1f1f;"/></g><path d="M12968.7,7361.36c16.262,0.367 40.154,-1.079 69.77,-6.413l0,-120.495c-23.454,32.754 -49.091,66.825 -79.937,103.791c-7.538,9.013 -1.575,22.825 10.167,23.117" style="fill-rule:nonzero;"/><path d="M13034.6,6922.27c1.154,-0.146 2.737,-0.404 3.946,-0.55l0,-41.859c-5.463,6.505 -10.484,12.642 -16.175,19.309c-8.296,9.708 -0.455,24.637 12.229,23.1" style="fill-rule:nonzero;"/><path d="M1068.29,11549.3l4767.85,2752.71c502.166,289.921 1120.85,289.921 1623.01,0l4767.84,-2752.71c502.158,-289.921 811.517,-825.729 811.517,-1405.58l0,-2672.11c-30.317,40.28 -71.326,87.267 -127.988,139.2c-9.108,8.338 -3.838,23.667 8.487,24.38c17.888,1.008 42.005,0.587 68.43,-4.834c12,-2.454 21.412,10.129 15.22,20.679c-23.504,40.1 -72.412,116.305 -146.195,198.792c-22.571,-44.846 -38.563,-83.862 -46.684,-104.871c-2.483,-6.433 3.655,-12.716 10.209,-10.55c30.32,9.909 59.65,13.921 78.425,15.55c7.416,0.625 11.666,-8.225 6.575,-13.683c-137.9,-147.479 -148.709,-234.346 -147.859,-262.008c0.154,-4.963 4.821,-8.588 9.7,-7.584c22.138,4.709 49.717,5.459 67.209,5.371c6.925,-0.037 10.516,-8.171 6.045,-13.429c-129.25,-152.721 -181.579,-304.1 -195.416,-357.042c-4.167,-15.954 -9.304,14.929 -9.304,14.929c-10.905,63.475 -49.042,205.275 -180.709,343.175c-4.912,5.13 -1.525,13.663 5.584,13.796c15.333,0.329 38.762,-0.183 63.895,-4.6c5.221,-0.916 9.871,3.134 9.571,8.429c-1.125,20.167 -15.8,74.35 -104.129,189.063c-128.775,-90.658 -187.429,-192.475 -210.396,-243.417c-5.887,-13.062 7.446,-26.396 22.021,-22.421c71.542,19.584 124.625,22.696 156.408,21.909c14.913,-0.367 22.605,-16.45 13.392,-27.388c-154.275,-183.546 -260.529,-420.729 -296.758,-507.962c-5.513,-13.3 8.141,-26.267 22.691,-21.854c67.292,20.516 132.392,28.816 174.067,32.15c16.488,1.354 25.921,-17.017 14.608,-28.284c-306.125,-305.146 -330.12,-484.846 -328.237,-542.016c0.35,-10.296 10.712,-17.771 21.533,-15.642c49.15,9.687 110.371,11.225 149.213,11.042c15.366,-0.071 23.35,-16.871 13.412,-27.788c-286.937,-315.917 -403.079,-629.067 -433.808,-738.571c-9.246,-33.012 -20.667,30.846 -20.667,30.846c-24.179,131.308 -108.85,424.654 -401.171,709.942c-10.879,10.625 -3.35,28.283 12.421,28.612c34.038,0.642 86.021,-0.496 141.838,-9.616c11.575,-1.888 21.908,6.541 21.246,17.458c-2.834,46.967 -44.034,183.237 -313.925,487.1c-194.675,-191.554 -211.392,-305.238 -210.138,-341.746c0.242,-6.725 7.233,-11.596 14.542,-10.221c33.225,6.338 74.596,7.346 100.841,7.217c10.396,-0.038 15.775,-11.008 9.071,-18.133c-193.916,-206.175 -272.412,-410.605 -293.183,-482.084c-6.246,-21.487 -13.958,20.167 -13.958,20.167c-34.88,92.783 -105.513,275.729 -227.667,416.558c-65.738,-41.125 -98.25,-85.966 -110.388,-108.9c-3.195,-6.083 4.059,-12.258 12.009,-10.387c38.983,9.083 67.925,10.516 85.233,10.166c8.133,-0.166 12.329,-7.658 7.308,-12.712c-84.075,-85.288 -142,-195.492 -161.737,-236.013c-3.017,-6.191 4.429,-12.237 12.354,-10.166c36.671,9.541 72.154,13.391 94.871,14.929c8.992,0.625 14.133,-7.913 7.967,-13.133c-166.842,-141.767 -179.921,-225.259 -178.892,-251.838c0.183,-4.783 5.821,-8.229 11.721,-7.254c26.8,4.504 60.175,5.221 81.333,5.129c8.379,-0.037 12.729,-7.842 7.308,-12.917c-156.391,-146.8 -219.691,-292.283 -236.429,-343.175c-5.037,-15.312 -11.271,14.363 -11.271,14.363c-13.179,61 -59.32,197.325 -218.645,329.837c-5.934,4.93 -1.834,13.138 6.762,13.3c18.554,0.292 46.892,-0.237 77.304,-4.487c6.317,-0.879 11.95,3.042 11.592,8.154c-1.629,22.929 -24.704,90.838 -193.971,248.392c-5.817,5.387 -0.312,13.758 8.583,12.879c23.896,-2.329 62.217,-7.421 101.134,-18.3c6.912,-1.942 14.021,2.6 12.975,8.35c-5.484,30.246 -32.75,113.65 -167.425,241.783c-5.296,5.038 -1.109,12.713 7.137,12.879c17.3,0.33 45.85,-1.154 84.15,-10.075c8.067,-1.87 15.359,4.509 11.917,10.588c-13.821,24.383 -50.154,75.396 -136.908,138.542c-6.392,4.67 -2.696,13.208 5.954,13.591c12.546,0.584 29.462,0.329 48,-2.675c8.421,-1.375 15.033,5.625 10.671,11.504c-8.167,11.1 -22.275,28.1 -39.146,47.059c-154.121,-176.442 -168.721,-282.317 -167.638,-317.234c0.213,-6.741 6.509,-11.595 13.096,-10.187c29.888,6.304 67.129,7.312 90.758,7.183c9.342,-0.037 14.196,-11.012 8.155,-18.137c-174.53,-206.188 -245.163,-410.563 -263.859,-482.042c-5.625,-21.525 -12.566,20.133 -12.566,20.133c-14.709,85.73 -66.205,277.171 -244,463.338c-6.613,6.925 -2.042,18.467 7.55,18.704c20.7,0.421 52.333,-0.329 86.27,-6.283c7.042,-1.246 13.325,4.25 12.921,11.412c-1.812,32.259 -27.55,127.621 -216.45,348.925c-6.5,7.621 -0.366,19.309 9.584,18.1c26.65,-3.262 69.425,-10.425 112.858,-25.721c7.708,-2.708 15.646,3.7 14.479,11.8c-3.775,26.121 -17.021,80.855 -61.587,160.925c-197.475,-243.891 -215.171,-390.766 -213.592,-441.945c0.333,-10.625 10.287,-18.321 20.675,-16.105c47.212,9.967 106.017,11.559 143.321,11.375c14.766,-0.07 22.425,-17.4 12.879,-28.666c-275.596,-325.588 -387.133,-648.338 -416.646,-761.213c-8.896,-34 -19.858,31.817 -19.858,31.817c-23.225,135.375 -104.542,437.658 -385.309,731.687c-10.454,10.955 -3.22,29.18 11.921,29.475c32.684,0.696 82.625,-0.495 136.229,-9.891c11.121,-1.925 21.05,6.721 20.417,18.004c-2.875,50.942 -43.525,201.575 -341.817,551.05c-10.258,11.996 -0.566,30.479 15.13,28.558c42.095,-5.15 109.637,-16.471 178.22,-40.612c12.196,-4.288 24.717,5.804 22.88,18.612c-9.342,64.588 -56.092,239.946 -272.138,507.213c-0.35,-0.717 0.258,-1.504 -0.275,-2.217c-93.825,-119.746 -158.45,-274.592 -180.479,-331.525c-3.363,-8.646 4.946,-17.108 13.792,-14.25c40.933,13.408 80.516,18.796 105.87,20.992c10.03,0.879 15.763,-11.117 8.884,-18.467c-186.188,-199.154 -200.784,-316.446 -199.629,-353.758c0.212,-6.742 6.5,-11.617 13.079,-10.204c29.912,6.304 67.137,7.329 90.766,7.2c9.342,-0.038 14.196,-10.992 8.15,-18.155c-174.516,-206.17 -245.15,-410.566 -263.837,-482.025c-5.633,-21.541 -12.583,20.167 -12.583,20.167c-14.7,85.675 -66.205,277.121 -244,463.342c-6.613,6.925 -2.034,18.429 7.558,18.646c20.7,0.441 52.325,-0.33 86.271,-6.263c7.029,-1.246 13.312,4.288 12.925,11.392c-1.817,32.262 -27.563,127.662 -216.463,348.962c-6.483,7.588 -0.346,19.292 9.571,18.084c26.667,-3.28 69.438,-10.425 112.871,-25.721c7.733,-2.709 15.662,3.683 14.492,11.796c-6.13,42.408 -36.559,159.57 -186.846,339.583c-5.9,7.054 -1.238,17.9 7.958,18.1c19.308,0.458 51.171,-1.629 93.904,-14.121c9.004,-2.642 17.146,6.317 13.3,14.871c-15.416,34.221 -55.958,105.879 -152.787,194.612c-7.117,6.505 -3.009,18.5 6.654,19.05c14.008,0.825 32.875,0.496 53.567,-3.754c9.387,-1.921 16.766,7.913 11.912,16.213c-18.95,32.279 -61.033,95.162 -121.762,161.966c-125.78,-141.779 -137.459,-226.612 -136.609,-254.291c0.167,-5.259 5.088,-9.05 10.221,-7.95c23.367,4.912 52.446,5.733 70.904,5.625c7.292,-0.054 11.084,-8.629 6.363,-14.179c-136.329,-161.055 -191.496,-320.696 -206.088,-376.53c-4.396,-16.816 -9.816,15.734 -9.816,15.734c-11.505,66.933 -51.721,216.487 -190.6,361.916c-5.167,5.421 -1.596,14.434 5.895,14.6c16.175,0.33 40.867,-0.262 67.396,-4.895c5.492,-0.955 10.404,3.337 10.092,8.925c-1.213,21.341 -16.704,78.82 -110.942,200.841c-22.171,-29.346 -35.504,-53.162 -42.071,-67.741c-3.012,-6.709 3.355,-13.684 10.405,-11.671c33.45,9.8 58.4,11.429 73.512,11.083c7.196,-0.167 10.842,-8.667 6.229,-14.158c-117.641,-140.909 -141.454,-232.609 -146.254,-265.817c-0.917,-6.342 5.296,-11.379 11.338,-9.217c34,11.963 67.475,17.55 88.341,20.096c7.775,0.954 12.571,-8.204 7.492,-14.141c-147.846,-173.217 -168.008,-247.884 -169.417,-273.142c-0.329,-5.588 4.6,-9.875 10.113,-8.921c26.558,4.671 51.316,5.258 67.529,4.892c7.5,-0.167 11.087,-9.179 5.9,-14.6c-139.158,-145.721 -179.475,-295.604 -190.988,-362.684c0.001,0 -5.429,-32.625 -9.825,-15.754c-14.637,55.946 -69.925,215.917 -206.541,377.284c-4.725,5.604 -0.934,14.195 6.391,14.216c18.484,0.109 47.642,-0.683 71.042,-5.608c5.146,-1.117 10.075,2.712 10.238,7.967c0.845,27.058 -10.359,108.683 -127.971,244.604c-19.25,-27.146 -35.346,-51.492 -44.613,-67.284c-4.846,-8.295 2.529,-18.133 11.917,-16.212c20.683,4.25 39.558,4.583 53.563,3.796c9.662,-0.588 13.775,-12.55 6.65,-19.088c-96.813,-88.716 -137.371,-160.396 -152.775,-194.612c-3.855,-8.559 4.287,-17.517 13.299,-14.859c42.738,12.475 74.592,14.563 93.896,14.105c9.196,-0.184 13.871,-11.046 7.971,-18.096c-150.3,-179.979 -180.729,-297.159 -186.846,-339.584c-1.175,-8.095 6.759,-14.508 14.479,-11.795c43.434,15.291 86.209,22.491 112.871,25.754c9.929,1.171 16.063,-10.496 9.571,-18.1c-188.887,-221.321 -214.646,-316.721 -216.458,-348.963c-0.404,-7.125 5.887,-12.621 12.933,-11.412c33.942,5.991 65.559,6.708 86.258,6.287c9.6,-0.204 14.18,-11.746 7.559,-18.666c-177.796,-186.225 -229.3,-377.671 -244,-463.342c0,0 -6.954,-41.713 -12.575,-20.167c-18.692,71.475 -89.321,275.85 -263.854,482.059c-6.038,7.125 -1.192,18.079 8.171,18.133c23.612,0.112 60.849,-0.879 90.745,-7.217c6.584,-1.371 12.879,3.5 13.096,10.204c1.154,37.317 -13.446,154.609 -199.629,353.763c-6.888,7.346 -1.154,19.346 8.875,18.462c25.354,-2.179 64.946,-7.583 105.871,-20.97c8.854,-2.896 17.154,5.583 13.791,14.25c-22.016,56.95 -86.654,211.758 -180.479,331.52c-5.604,7.167 -0.933,17.663 8.142,17.88c19.325,0.533 51.621,-1.5 95.129,-14.267c8.863,-2.621 16.979,6.096 13.4,14.596c-16.058,38.25 -60.662,120.3 -165.9,184.779c-7.812,4.8 -6.725,16.467 1.858,19.637c23.584,8.738 64.417,20.88 107.592,20.167c9.546,-0.129 14.692,11.138 8.296,18.246c-35.738,39.658 -123.571,131.725 -247.938,224.983c-8.166,6.117 -4.274,19.121 5.909,19.713c45.075,2.654 131.079,5.404 185.65,-7.292c8.8,-2.05 16.171,6.7 12.562,14.983c-16.604,38.025 -62.629,124.671 -168.416,236.05c-25.188,-32.5 -40.334,-58.966 -47.425,-74.725c-3.067,-6.795 3.416,-13.933 10.604,-11.812c34.092,9.929 59.5,11.629 74.896,11.229c7.337,-0.162 11.062,-8.792 6.358,-14.433c-119.867,-143.542 -144.146,-237.004 -149.029,-270.854c-0.933,-6.467 5.383,-11.575 11.55,-9.396c34.65,12.2 68.758,17.912 90.025,20.496c7.912,0.991 12.812,-8.371 7.637,-14.417c-150.666,-176.496 -171.2,-252.571 -172.65,-278.325c-0.312,-5.679 4.692,-10.075 10.313,-9.088c27.075,4.763 52.3,5.35 68.804,5c7.658,-0.162 11.304,-9.358 6.029,-14.875c-141.812,-148.504 -182.879,-301.204 -194.612,-369.566c0,0 -5.534,-33.246 -10.038,-16.046c-14.896,56.987 -71.241,220 -210.441,384.442c-4.821,5.679 -0.955,14.454 6.512,14.47c18.842,0.092 48.533,-0.675 72.383,-5.75c5.25,-1.116 10.28,2.784 10.442,8.15c0.733,23.65 -7.696,88.296 -85.225,193.296c-55.917,-61.475 -83.412,-110.296 -95.283,-136.675c-3.846,-8.554 4.287,-17.508 13.3,-14.854c42.737,12.475 74.608,14.563 93.908,14.104c9.204,-0.183 13.867,-11.046 7.967,-18.1c-150.288,-179.975 -180.717,-297.154 -186.854,-339.583c-1.163,-8.092 6.77,-14.504 14.491,-11.796c43.434,15.296 86.188,22.479 112.859,25.721c9.937,1.208 16.075,-10.496 9.579,-18.079c-188.896,-221.304 -214.634,-316.704 -216.467,-348.946c-0.392,-7.146 5.888,-12.621 12.933,-11.413c33.942,5.975 65.571,6.688 86.28,6.267c9.579,-0.2 14.158,-11.725 7.537,-18.65c-177.787,-186.221 -229.279,-377.667 -243.992,-463.358c0,0 -6.941,-41.692 -12.575,-20.15c-18.691,71.479 -89.325,275.854 -263.854,482.025c-6.037,7.162 -1.191,18.116 8.163,18.171c23.621,0.112 60.862,-0.88 90.754,-7.217c6.587,-1.371 12.892,3.462 13.087,10.187c1.159,37.334 -13.441,154.621 -199.629,353.78c-2.15,2.325 -1.254,5.037 -1.191,7.708c-85.884,-61.071 -126.525,-131.579 -141.121,-166.346c-3.571,-8.517 4.521,-17.217 13.387,-14.6c43.508,12.771 75.804,14.8 95.129,14.271c9.075,-0.221 13.755,-10.717 8.15,-17.879c-93.825,-119.763 -158.45,-274.571 -180.487,-331.504c-3.363,-8.684 4.946,-17.146 13.792,-14.25c40.92,13.37 80.529,18.754 105.87,20.991c10.03,0.842 15.763,-11.158 8.896,-18.5c-186.187,-199.158 -200.787,-316.45 -199.633,-353.725c0.2,-6.741 6.504,-11.616 13.079,-10.241c29.892,6.337 67.133,7.345 90.767,7.237c9.341,-0.075 14.187,-11.029 8.15,-18.171c-174.534,-206.154 -245.159,-410.55 -263.854,-482.046c-5.626,-21.504 -12.567,20.167 -12.567,20.167c-14.708,85.713 -66.204,277.158 -243.996,463.342c-6.625,6.925 -2.046,18.466 7.546,18.65c20.696,0.475 52.325,-0.296 86.279,-6.267c7.033,-1.208 13.317,4.288 12.912,11.396c-1.812,32.258 -27.562,127.658 -216.449,348.962c-6.492,7.617 -0.355,19.325 9.57,18.08c26.663,-3.242 69.43,-10.425 112.863,-25.684c7.729,-2.746 15.65,3.646 14.479,11.763c-6.117,42.421 -36.546,159.604 -186.846,339.616c-5.887,7.055 -1.229,17.863 7.967,18.1c19.308,0.459 51.183,-1.666 93.921,-14.162c8.991,-2.633 17.137,6.321 13.287,14.875c-10.212,22.679 -33.358,62.812 -74.637,112.362c-121.504,-165.812 -134.659,-267.975 -133.492,-305.562c0.263,-8.592 8.304,-14.838 16.713,-13.042c38.183,8.079 85.75,9.379 115.925,9.213c11.937,-0.054 18.129,-14.067 10.416,-23.154c-222.916,-263.342 -313.129,-524.434 -337,-615.713c-7.2,-27.512 -16.066,25.721 -16.066,25.721c-18.784,109.487 -84.555,354 -311.646,591.804c-8.463,8.867 -2.613,23.613 9.633,23.867c26.454,0.55 66.846,-0.4 110.196,-8.021c8.992,-1.596 17.025,5.458 16.512,14.546c-2.325,41.216 -35.208,163.05 -276.475,445.733c-8.291,9.713 -0.458,24.642 12.225,23.1c34.063,-4.175 88.688,-13.333 144.159,-32.862c9.871,-3.48 20,4.691 18.5,15.058c-7.821,54.183 -46.675,203.862 -238.65,433.775c-7.529,9.012 -1.575,22.825 10.175,23.117c24.658,0.57 65.358,-2.121 119.937,-18.059c11.504,-3.371 21.913,8.059 16.984,18.975c-19.675,43.746 -71.467,135.246 -195.125,248.579c-9.117,8.338 -3.859,23.667 8.479,24.38c17.896,1.008 41.996,0.587 68.416,-4.834c12,-2.454 21.417,10.129 15.225,20.679c-23.5,40.1 -72.391,116.305 -146.187,198.792c-22.571,-44.808 -38.571,-83.862 -46.683,-104.871c-2.492,-6.433 3.662,-12.716 10.208,-10.55c30.308,9.909 59.637,13.921 78.412,15.55c7.438,0.625 11.671,-8.225 6.575,-13.683c-137.887,-147.479 -148.704,-234.346 -147.845,-262.008c0.15,-4.963 4.82,-8.588 9.691,-7.584c22.138,4.709 49.717,5.459 67.217,5.371c6.917,-0.037 10.508,-8.171 6.037,-13.429c-129.25,-152.721 -181.566,-304.1 -195.408,-357.042c-4.167,-15.954 -9.317,14.929 -9.317,14.929c-10.887,63.475 -49.016,205.275 -180.708,343.175c-4.908,5.13 -1.521,13.663 5.588,13.796c15.333,0.329 38.762,-0.183 63.895,-4.6c5.217,-0.916 9.871,3.134 9.58,8.429c-1.138,20.167 -15.792,74.35 -104.13,189.063c-128.787,-90.658 -187.441,-192.475 -210.404,-243.417c-5.871,-13.062 7.446,-26.396 22.029,-22.421c71.534,19.584 124.617,22.696 156.4,21.909c14.93,-0.367 22.605,-16.45 13.392,-27.388c-154.258,-183.546 -260.525,-420.729 -296.737,-507.962c-5.534,-13.3 8.125,-26.267 22.679,-21.854c67.279,20.516 132.383,28.816 174.058,32.15c16.504,1.354 25.921,-17.017 14.608,-28.284c-306.116,-305.146 -330.12,-484.846 -328.216,-542.016c0.337,-10.296 10.687,-17.771 21.516,-15.642c49.155,9.687 110.375,11.225 149.209,11.042c15.387,-0.071 23.346,-16.871 13.429,-27.788c-286.954,-315.917 -403.083,-629.067 -433.813,-738.571c-9.25,-33.012 -20.67,30.846 -20.67,30.846c-24.184,131.308 -108.85,424.654 -401.163,709.942c-10.896,10.625 -3.358,28.283 12.4,28.612c34.038,0.642 86.042,-0.496 141.838,-9.616c11.579,-1.888 21.912,6.541 21.262,17.458c-2.85,46.967 -44.046,183.237 -313.929,487.1c-194.667,-191.554 -211.404,-305.238 -210.146,-341.746c0.238,-6.725 7.233,-11.596 14.542,-10.221c33.221,6.338 74.604,7.346 100.854,7.217c10.387,-0.038 15.771,-11.008 9.058,-18.133c-98.129,-104.342 -166.516,-208.059 -213.004,-294.505l0,3980.64c0,579.846 309.338,1115.65 811.496,1405.58" style="fill-rule:nonzero;"/><path d="M6653.46,525.217c-238.471,0 -473.68,63.025 -680.205,182.262l-4767.84,2752.72c-206.521,119.233 -378.708,291.416 -497.946,497.941c-119.233,206.521 -182.258,441.73 -182.258,680.2l0,5505.43c0,238.47 63.025,473.683 182.258,680.204c119.238,206.521 291.425,378.704 497.942,497.941l4767.84,2752.71c206.525,119.242 441.734,182.267 680.205,182.267c238.47,0 473.679,-63.025 680.204,-182.267l4767.84,-2752.71c206.521,-119.237 378.705,-291.42 497.946,-497.941c119.234,-206.521 182.259,-441.734 182.259,-680.204l0,-5505.43c0,-238.466 -63.025,-473.679 -182.259,-680.2c-119.241,-206.525 -291.425,-378.708 -497.946,-497.941l-4767.84,-2752.72c-206.525,-119.237 -441.734,-182.262 -680.204,-182.262m0,14256.9c-330.538,0 -656.559,-87.354 -942.813,-252.629l-4767.84,-2752.71c-286.254,-165.267 -524.916,-403.925 -690.183,-690.18c-165.271,-286.258 -252.625,-612.279 -252.625,-942.816l0,-5505.43c0,-330.537 87.354,-656.554 252.625,-942.808c165.267,-286.258 403.929,-524.917 690.183,-690.192l4767.84,-2752.71c286.254,-165.271 612.275,-252.629 942.813,-252.629c330.541,0 656.558,87.358 942.812,252.629l4767.84,2752.71c286.258,165.275 524.92,403.934 690.195,690.192c165.267,286.254 252.625,612.271 252.625,942.809l0,5505.43c0,330.537 -87.358,656.558 -252.625,942.816c-165.275,286.255 -403.941,524.913 -690.195,690.184l-4767.84,2752.71c-286.254,165.271 -612.271,252.625 -942.812,252.625" style="fill-rule:nonzero;"/><g><path d="M2497.05,9208.48l0,162.323l-396.921,0l0,1454.98l-497.633,0l0,-1454.98l-399.291,0l0,-162.323l1293.85,0Z" style="fill:#fff;fill-rule:nonzero;"/><path d="M3353.69,9208.48l450.239,1617.31l-471.566,0l-95.972,-350.713l-486.969,0l-103.081,350.713l-183.651,0l478.676,-1617.31l412.324,0Zm-558.06,1104.27l396.922,0l-190.76,-716.827l-206.162,716.827Z" style="fill:#fff;fill-rule:nonzero;"/><path d="M3929.52,10825.8l0,-1617.31l719.197,0c370.46,0 555.69,132.307 555.69,396.921c0,187.995 -111.77,308.453 -335.31,361.376c269.354,53.713 404.031,196.684 404.031,428.912c0,286.731 -181.281,430.097 -543.842,430.097l-799.766,0Zm469.196,-133.887l133.887,0c175.356,0 263.034,-100.316 263.034,-300.949c0,-229.859 -90.442,-344.788 -271.328,-344.788l-125.593,0l0,645.737Zm0,-779.624l144.551,0c133.491,0 200.237,-98.737 200.237,-296.21c0,-182.465 -70.695,-273.698 -212.086,-273.698l-132.702,0l0,569.908Z" style="fill:#fff;fill-rule:nonzero;"/><path d="M5923.61,9208.48l0,1454.98l664.694,0l0,162.323l-1133.89,0l0,-1617.31l469.197,0Z" style="fill:#fff;fill-rule:nonzero;"/><path d="M7735.23,9208.48l0,162.323l-579.386,0l0,489.339l486.969,0l0,162.323l-486.969,0l0,640.998l677.728,0l0,162.323l-1146.92,0l0,-1617.31l1048.58,0Z" style="fill:#fff;fill-rule:nonzero;"/><path d="M9115.56,9208.48l0,162.323l-396.921,0l0,1454.98l-497.633,0l0,-1454.98l-399.291,0l0,-162.323l1293.85,0Z" style="fill:#fff;fill-rule:nonzero;"/><path d="M9898.74,9180.04c470.776,0 706.164,278.832 706.164,836.497c0,557.664 -239.732,836.496 -719.197,836.496c-479.465,0 -719.198,-285.151 -719.198,-855.454c0,-545.026 244.077,-817.539 732.231,-817.539Zm-13.033,129.147c-88.468,0 -148.303,48.776 -179.503,146.328c-31.201,97.552 -46.802,284.559 -46.802,561.022c0,276.462 15.601,463.469 46.802,561.021c31.2,97.552 91.035,146.328 179.503,146.328c88.468,0 148.302,-48.776 179.503,-146.328c31.201,-97.552 46.801,-284.559 46.801,-561.021c0,-275.673 -15.6,-462.483 -46.801,-560.43c-31.201,-97.946 -91.035,-146.92 -179.503,-146.92Z" style="fill:#fff;fill-rule:nonzero;"/><path d="M10812.3,10825.8l0,-1617.31l697.871,0c395.736,0 593.604,158.374 593.604,475.121c0,319.906 -219.985,479.86 -659.955,479.86l-162.323,0l0,662.325l-469.197,0Zm469.197,-811.615l105.45,0c170.617,0 255.926,-112.955 255.926,-338.864c0,-211.692 -85.309,-317.537 -255.926,-317.537l-105.45,0l0,656.401Z" style="fill:#fff;fill-rule:nonzero;"/><path d="M3926.24,11162.8l265.94,955.283l-278.537,0l-56.687,-207.153l-287.635,0l-60.886,207.153l-108.475,0l282.735,-955.283l243.545,0Zm-329.625,652.252l234.447,0l-112.675,-423.404l-121.772,423.404Z" style="fill:#fff;fill-rule:nonzero;"/><path d="M5321.02,11430.1l-128.771,23.794c5.599,-25.661 8.398,-47.122 8.398,-64.385c0,-111.042 -67.418,-166.562 -202.254,-166.562c-106.375,0 -159.563,38.258 -159.563,114.774c0,57.387 59.486,106.609 178.459,147.666c229.548,78.849 344.322,195.489 344.322,349.921c0,90.512 -32.193,163.179 -96.578,218c-64.386,54.821 -150,82.231 -256.842,82.231c-236.546,0 -354.819,-91.679 -354.819,-275.037c0,-14.93 1.166,-33.359 3.499,-55.288l133.67,-29.393c-10.265,40.591 -15.397,75.816 -15.397,105.676c0,118.506 67.885,177.76 203.654,177.76c108.708,0 163.063,-42.691 163.063,-128.071c0,-63.452 -65.085,-119.206 -195.256,-167.262c-188.024,-69.051 -282.036,-179.393 -282.036,-331.025c0,-85.847 31.376,-155.015 94.129,-207.503c62.752,-52.488 145.217,-78.732 247.394,-78.732c209.952,0 314.928,94.479 314.928,283.436Z" style="fill:#fff;fill-rule:nonzero;"/><path d="M6537.35,11430.1l-128.77,23.794c5.598,-25.661 8.398,-47.122 8.398,-64.385c0,-111.042 -67.418,-166.562 -202.254,-166.562c-106.376,0 -159.564,38.258 -159.564,114.774c0,57.387 59.487,106.609 178.459,147.666c229.548,78.849 344.322,195.489 344.322,349.921c0,90.512 -32.192,163.179 -96.578,218c-64.385,54.821 -149.999,82.231 -256.841,82.231c-236.547,0 -354.82,-91.679 -354.82,-275.037c0,-14.93 1.167,-33.359 3.499,-55.288l133.67,-29.393c-10.264,40.591 -15.396,75.816 -15.396,105.676c0,118.506 67.884,177.76 203.653,177.76c108.709,0 163.063,-42.691 163.063,-128.071c0,-63.452 -65.085,-119.206 -195.255,-167.262c-188.024,-69.051 -282.036,-179.393 -282.036,-331.025c0,-85.847 31.376,-155.015 94.128,-207.503c62.753,-52.488 145.217,-78.732 247.394,-78.732c209.952,0 314.928,94.479 314.928,283.436Z" style="fill:#fff;fill-rule:nonzero;"/><path d="M7748.07,11162.8l0,95.879l-342.222,0l0,289.034l287.635,0l0,95.878l-287.635,0l0,378.614l400.309,0l0,95.878l-677.446,0l0,-955.283l619.359,0Z" style="fill:#fff;fill-rule:nonzero;"/><path d="M8993.09,11162.8l0,95.879l-234.447,0l0,859.404l-293.933,0l0,-859.404l-235.846,0l0,-95.879l764.226,0Z" style="fill:#fff;fill-rule:nonzero;"/><path d="M10119.1,11430.1l-128.771,23.794c5.599,-25.661 8.398,-47.122 8.398,-64.385c0,-111.042 -67.418,-166.562 -202.254,-166.562c-106.375,0 -159.563,38.258 -159.563,114.774c0,57.387 59.486,106.609 178.459,147.666c229.548,78.849 344.322,195.489 344.322,349.921c0,90.512 -32.193,163.179 -96.578,218c-64.386,54.821 -149.999,82.231 -256.842,82.231c-236.546,0 -354.819,-91.679 -354.819,-275.037c0,-14.93 1.166,-33.359 3.499,-55.288l133.67,-29.393c-10.265,40.591 -15.397,75.816 -15.397,105.676c0,118.506 67.885,177.76 203.654,177.76c108.709,0 163.063,-42.691 163.063,-128.071c0,-63.452 -65.085,-119.206 -195.256,-167.262c-188.024,-69.051 -282.036,-179.393 -282.036,-331.025c0,-85.847 31.377,-155.015 94.129,-207.503c62.752,-52.488 145.217,-78.732 247.394,-78.732c209.952,0 314.928,94.479 314.928,283.436Z" style="fill:#fff;fill-rule:nonzero;"/><path d="M3606.98,7990.75l-277.09,955.122l-248.402,0l-253.3,-955.122l279.89,0l188.925,723.514l206.418,-723.514l103.559,0Z" style="fill:#fff;fill-rule:nonzero;"/><rect x="4110.08" y="7990.75" width="277.09" height="955.122" style="fill:#fff;fill-rule:nonzero;"/><path d="M4982.64,8945.87l0,-955.122l410.737,0c106.825,0 192.191,22.508 256.099,67.524c63.908,45.015 95.862,105.308 95.862,180.878c0,115.687 -68.573,191.024 -205.719,226.01c70.439,26.123 116.038,54.812 136.796,86.066c20.759,31.255 34.87,91.897 42.333,181.928c8.864,107.291 26.823,178.196 53.879,212.716l-300.881,0c-19.126,-44.316 -28.688,-99.594 -28.688,-165.834l-1.4,-56.678l-1.399,-71.372c0,-110.089 -44.316,-165.134 -132.948,-165.134l-47.581,0l0,459.018l-277.09,0Zm277.09,-538.087l55.978,0c104.958,0 157.438,-54.812 157.438,-164.435c0,-109.623 -52.48,-164.435 -157.438,-164.435l-55.978,0l0,328.87Z" style="fill:#fff;fill-rule:nonzero;"/><path d="M6988.04,7990.75l0,95.862l-234.408,0l0,859.26l-293.883,0l0,-859.26l-235.807,0l0,-95.862l764.098,0Z" style="fill:#fff;fill-rule:nonzero;"/><path d="M8207.66,7990.75l0,640.946c0,219.713 -121.518,329.57 -364.555,329.57c-242.104,0 -363.156,-109.857 -363.156,-329.57l0,-640.946l277.09,0l0,649.343c0,83.967 12.012,141.344 36.036,172.132c24.023,30.788 68.456,46.182 133.297,46.182c125.483,0 188.225,-75.57 188.225,-226.711l0,-640.946l93.063,0Z" style="fill:#fff;fill-rule:nonzero;"/><path d="M9221.56,7990.75l265.894,955.122l-278.489,0l-56.678,-207.118l-287.586,0l-60.876,207.118l-108.457,0l282.688,-955.122l243.504,0Zm-329.57,652.142l234.407,0l-112.655,-423.332l-121.752,423.332Z" style="fill:#fff;fill-rule:nonzero;"/><path d="M10269,7990.75l0,859.26l392.544,0l0,95.862l-669.634,0l0,-955.122l277.09,0Z" style="fill:#fff;fill-rule:nonzero;"/></g></svg>